<svg id="Layer_1" xmlns="http://www.w3.org/2000/svg" xmlns:xlink="http://www.w3.org/1999/xlink" viewBox="0 0 256 251" style="enable-background:new 0 0 256 251"><style>.st0{fill:#333}</style><path class="st0" d="M.4.4l218.9 231.8c0 0 7.5 5.3 13.2-.9 5.7-6.1 1.3-12.3 1.3-12.3L.4.4v0z"/><path class="st0" d="M69.7 22.4 236.4 202c0 0 7.5 5.3 13.2-.9 5.7-6.1 1.3-12.3 1.3-12.3L69.7 22.4v0z"/><path class="st0" d="M21.1 69.2l166.7 179.7c0 0 7.5 5.3 13.2-.9 5.7-6.1 1.3-12.3 1.3-12.3L21.1 69.2v0z"/><path class="st0" d="M128.3 41.2l116.4 125.5c0 0 5.2 3.7 9.2-.6 4-4.3.9-8.6.9-8.6L128.3 41.2v0z"/><path class="st0" d="M37.1 123.6l116.4 125.5c0 0 5.2 3.7 9.2-.6 4-4.3.9-8.6.9-8.6L37.1 123.6v0z"/><path class="st0" d="M188.2 68.4l52.8 57.1c0 0 2.6 1.7 4.5-.3s.5-4 .5-4L188.2 68.4v0z"/><path class="st0" d="M66.2 181.4l52.8 57.1c0 0 2.6 1.7 4.5-.3 2-2 .5-4 .5-4L66.2 181.4v0z"/></svg>